<svg id="Layer_1" data-name="Layer 1" xmlns="http://www.w3.org/2000/svg" xmlns:xlink="http://www.w3.org/1999/xlink" viewBox="0 0 663.69 603.48"><defs><clipPath id="clip-path" transform="translate(-180.15 -246.48)"><rect x="180.15" y="246.48" width="663.69" height="633.52" style="fill:none"/></clipPath></defs><g style="clip-path:url(#clip-path)"><path d="M352.44,496.54a31.32,31.32,0,1,0,6.37,10,33.12,33.12,0,0,0-6.37-10Zm77.78-77.78a30.73,30.73,0,0,0,42.89,0,37.18,37.18,0,0,0,6.37-10,29.05,29.05,0,0,0,2.35-11.44,31.42,31.42,0,0,0-8.72-21.44l-4.58-3.54-5.43-2.83a20.55,20.55,0,0,0-5.67-2.35,30.16,30.16,0,0,0-27.21,8.14,31.38,31.38,0,0,0-6.37,10,28.62,28.62,0,0,0,0,22.84,37.6,37.6,0,0,0,6.37,10.61Zm-82.36-46.43a22.29,22.29,0,0,0-5.44-2.83L337,367.15a30,30,0,0,0-27.44,8.14,31.21,31.21,0,0,0-6.37,10,28.62,28.62,0,0,0,0,22.84,36.72,36.72,0,0,0,6.37,10,36.08,36.08,0,0,0,10,6.25A24.23,24.23,0,0,0,331,427.48a30.49,30.49,0,0,0,21.45-8.72,37.43,37.43,0,0,0,6.37-10,29.05,29.05,0,0,0,2.35-11.44,31.46,31.46,0,0,0-8.72-21.44ZM533.45,737.88a30.44,30.44,0,0,0-42.9,0l-60.33,60.34a30.33,30.33,0,0,0,42.89,42.89L512,801.87l38.89,39.24a30.33,30.33,0,0,0,42.89-42.89Zm181-241.34a30.43,30.43,0,0,0-42.89,0,33.12,33.12,0,0,0-6.37,10,30.24,30.24,0,0,0,39.25,39.24,37.18,37.18,0,0,0,10-6.37A30.49,30.49,0,0,0,723.17,518a25,25,0,0,0-2.35-11.43,32.74,32.74,0,0,0-6.37-10Zm-142.11-8.72H451.66a30.17,30.17,0,0,0,0,60.33H572.34a30.17,30.17,0,0,0,0-60.33Zm181-241.34H270.66A90.54,90.54,0,0,0,180.15,337V578.32a90.54,90.54,0,0,0,90.51,90.5H753.34a90.54,90.54,0,0,0,90.51-90.5V337a90.54,90.54,0,0,0-90.51-90.5Zm30.17,331.84a30.21,30.21,0,0,1-30.17,30.17H270.66a30.21,30.21,0,0,1-30.17-30.17V337a30.21,30.21,0,0,1,30.17-30.17H753.34A30.21,30.21,0,0,1,783.51,337ZM681.58,369.5a29.64,29.64,0,0,0-10,6.37,31.46,31.46,0,0,0-8.72,21.44,29.05,29.05,0,0,0,2.35,11.44,37.43,37.43,0,0,0,6.37,10,30.73,30.73,0,0,0,42.89,0,36.94,36.94,0,0,0,6.37-10,29.05,29.05,0,0,0,2.35-11.44,31.42,31.42,0,0,0-8.72-21.44,30.34,30.34,0,0,0-32.87-6.37Zm-92.38,2.83-5.43-2.83-5.44-2.35a30.14,30.14,0,0,0-17.42,1.78,27.54,27.54,0,0,0-10,6.36,31.38,31.38,0,0,0-6.37,10,28.62,28.62,0,0,0,0,22.84,37,37,0,0,0,6.37,10,30,30,0,0,0,42.89.6,36.94,36.94,0,0,0,6.37-10,29.05,29.05,0,0,0,2.35-11.44,31.42,31.42,0,0,0-8.72-21.44Zm0,0" transform="translate(-180.15 -246.48)" style="fill:#4d4093"/></g></svg>