<svg id="Layer_1" data-name="Layer 1" xmlns="http://www.w3.org/2000/svg" xmlns:xlink="http://www.w3.org/1999/xlink" viewBox="0 0 663.7 422.34"><defs><clipPath id="clip-path" transform="translate(0 0)"><rect width="663.69" height="633.52" style="fill:none"/></clipPath></defs><g style="clip-path:url(#clip-path)"><path d="M172.29,250.06a31.32,31.32,0,1,0,6.37,10A32.94,32.94,0,0,0,172.29,250.06Zm77.78-77.78a30.72,30.72,0,0,0,42.89,0,37.2,37.2,0,0,0,6.37-10,29,29,0,0,0,2.35-11.44A31.4,31.4,0,0,0,293,129.4l-4.58-3.54L283,123a20.73,20.73,0,0,0-5.67-2.35,30.17,30.17,0,0,0-27.21,8.14,31.39,31.39,0,0,0-6.37,10,28.62,28.62,0,0,0,0,22.84,37.7,37.7,0,0,0,6.37,10.61Zm-82.36-46.43a22.17,22.17,0,0,0-5.44-2.83l-5.42-2.35a30,30,0,0,0-27.44,8.14,31.22,31.22,0,0,0-6.37,10,28.62,28.62,0,0,0,0,22.84,36.8,36.8,0,0,0,6.37,10,36.09,36.09,0,0,0,10,6.25,24.29,24.29,0,0,0,11.44,3.1,30.5,30.5,0,0,0,21.45-8.72,37.44,37.44,0,0,0,6.37-10A29,29,0,0,0,181,150.84a31.45,31.45,0,0,0-8.72-21.44ZM534.3,250.06a30.43,30.43,0,0,0-42.89,0,32.94,32.94,0,0,0-6.37,10,30.24,30.24,0,0,0,39.25,39.24,37.2,37.2,0,0,0,10-6.37A30.48,30.48,0,0,0,543,271.52a25,25,0,0,0-2.35-11.43,32.94,32.94,0,0,0-6.37-10Zm-142.11-8.72H271.51a30.17,30.17,0,0,0,0,60.33H392.19a30.17,30.17,0,0,0,0-60.33ZM573.19,0H90.51A90.55,90.55,0,0,0,0,90.52V331.84a90.54,90.54,0,0,0,90.51,90.5H573.19a90.54,90.54,0,0,0,90.51-90.5V90.52A90.54,90.54,0,0,0,573.19,0Zm30.17,331.84A30.21,30.21,0,0,1,573.19,362H90.51a30.21,30.21,0,0,1-30.17-30.17V90.52A30.21,30.21,0,0,1,90.51,60.35H573.19a30.21,30.21,0,0,1,30.17,30.17ZM501.43,123a29.57,29.57,0,0,0-10,6.37,31.45,31.45,0,0,0-8.72,21.44,29,29,0,0,0,2.35,11.44,37.44,37.44,0,0,0,6.37,10,30.72,30.72,0,0,0,42.89,0,37,37,0,0,0,6.37-10A29,29,0,0,0,543,150.83a31.4,31.4,0,0,0-8.72-21.44A30.35,30.35,0,0,0,501.45,123Zm-92.38,2.83L403.62,123l-5.44-2.35a30.21,30.21,0,0,0-17.42,1.78,27.5,27.5,0,0,0-10,6.36,31.39,31.39,0,0,0-6.37,10,28.62,28.62,0,0,0,0,22.84,37,37,0,0,0,6.37,10,30,30,0,0,0,42.41,1.06l.48-.46a37,37,0,0,0,6.37-10,29,29,0,0,0,2.35-11.44,31.4,31.4,0,0,0-8.72-21.44Z" transform="translate(0 0)" style="fill:#4d4093"/></g></svg>